<mxfile host="app.diagrams.net" agent="Mozilla/5.0 (Windows NT 10.0; Win64; x64) AppleWebKit/537.36 (KHTML, like Gecko) Chrome/137.0.0.0 Safari/537.36 Edg/137.0.0.0" version="27.0.5">
  <diagram name="Page-1" id="cUWzv3YXhRsAGVk8K4u4">
    <mxGraphModel dx="1003" dy="492" grid="1" gridSize="10" guides="1" tooltips="1" connect="1" arrows="1" fold="1" page="1" pageScale="1" pageWidth="850" pageHeight="1100" math="0" shadow="0">
      <root>
        <mxCell id="0" />
        <mxCell id="1" parent="0" />
        <mxCell id="sdvS5YXuIaI8DpuQS8_O-1" value="7." style="text;html=1;align=center;verticalAlign=middle;resizable=0;points=[];autosize=1;strokeColor=none;fillColor=none;" vertex="1" parent="1">
          <mxGeometry x="15" y="138" width="30" height="30" as="geometry" />
        </mxCell>
        <mxCell id="sdvS5YXuIaI8DpuQS8_O-2" value="8" style="text;html=1;align=center;verticalAlign=middle;resizable=0;points=[];autosize=1;strokeColor=none;fillColor=none;" vertex="1" parent="1">
          <mxGeometry x="85" y="138" width="30" height="30" as="geometry" />
        </mxCell>
        <mxCell id="sdvS5YXuIaI8DpuQS8_O-3" value="9" style="text;html=1;align=center;verticalAlign=middle;resizable=0;points=[];autosize=1;strokeColor=none;fillColor=none;" vertex="1" parent="1">
          <mxGeometry x="160" y="138" width="30" height="30" as="geometry" />
        </mxCell>
        <mxCell id="sdvS5YXuIaI8DpuQS8_O-4" value="10" style="text;html=1;align=center;verticalAlign=middle;resizable=0;points=[];autosize=1;strokeColor=none;fillColor=none;" vertex="1" parent="1">
          <mxGeometry x="230" y="138" width="40" height="30" as="geometry" />
        </mxCell>
        <mxCell id="sdvS5YXuIaI8DpuQS8_O-5" value="11" style="text;html=1;align=center;verticalAlign=middle;resizable=0;points=[];autosize=1;strokeColor=none;fillColor=none;" vertex="1" parent="1">
          <mxGeometry x="290" y="138" width="40" height="30" as="geometry" />
        </mxCell>
        <mxCell id="sdvS5YXuIaI8DpuQS8_O-6" value="12" style="text;html=1;align=center;verticalAlign=middle;resizable=0;points=[];autosize=1;strokeColor=none;fillColor=none;" vertex="1" parent="1">
          <mxGeometry x="360" y="138" width="40" height="30" as="geometry" />
        </mxCell>
        <mxCell id="sdvS5YXuIaI8DpuQS8_O-7" value="1" style="text;html=1;align=center;verticalAlign=middle;resizable=0;points=[];autosize=1;strokeColor=none;fillColor=none;" vertex="1" parent="1">
          <mxGeometry x="435" y="138" width="30" height="30" as="geometry" />
        </mxCell>
        <mxCell id="sdvS5YXuIaI8DpuQS8_O-8" value="2" style="text;html=1;align=center;verticalAlign=middle;resizable=0;points=[];autosize=1;strokeColor=none;fillColor=none;" vertex="1" parent="1">
          <mxGeometry x="495" y="138" width="30" height="30" as="geometry" />
        </mxCell>
        <mxCell id="sdvS5YXuIaI8DpuQS8_O-9" value="3" style="text;html=1;align=center;verticalAlign=middle;resizable=0;points=[];autosize=1;strokeColor=none;fillColor=none;" vertex="1" parent="1">
          <mxGeometry x="555" y="138" width="30" height="30" as="geometry" />
        </mxCell>
        <mxCell id="sdvS5YXuIaI8DpuQS8_O-10" value="4" style="text;html=1;align=center;verticalAlign=middle;resizable=0;points=[];autosize=1;strokeColor=none;fillColor=none;" vertex="1" parent="1">
          <mxGeometry x="615" y="138" width="30" height="30" as="geometry" />
        </mxCell>
        <mxCell id="sdvS5YXuIaI8DpuQS8_O-11" value="5" style="text;html=1;align=center;verticalAlign=middle;resizable=0;points=[];autosize=1;strokeColor=none;fillColor=none;" vertex="1" parent="1">
          <mxGeometry x="675" y="138" width="30" height="30" as="geometry" />
        </mxCell>
        <mxCell id="sdvS5YXuIaI8DpuQS8_O-12" value="6" style="text;html=1;align=center;verticalAlign=middle;resizable=0;points=[];autosize=1;strokeColor=none;fillColor=none;" vertex="1" parent="1">
          <mxGeometry x="735" y="138" width="30" height="30" as="geometry" />
        </mxCell>
        <mxCell id="sdvS5YXuIaI8DpuQS8_O-13" value="7" style="text;html=1;align=center;verticalAlign=middle;resizable=0;points=[];autosize=1;strokeColor=none;fillColor=none;" vertex="1" parent="1">
          <mxGeometry x="805" y="138" width="30" height="30" as="geometry" />
        </mxCell>
        <mxCell id="sdvS5YXuIaI8DpuQS8_O-16" value="" style="endArrow=classic;html=1;rounded=0;fillColor=#FF0808;strokeColor=#FF4545;" edge="1" parent="1">
          <mxGeometry width="50" height="50" relative="1" as="geometry">
            <mxPoint x="29.5" y="90" as="sourcePoint" />
            <mxPoint x="29.5" y="130" as="targetPoint" />
          </mxGeometry>
        </mxCell>
        <mxCell id="sdvS5YXuIaI8DpuQS8_O-17" value="" style="endArrow=classic;html=1;rounded=0;fillColor=#FF0808;strokeColor=#FF4545;" edge="1" parent="1">
          <mxGeometry width="50" height="50" relative="1" as="geometry">
            <mxPoint x="249.5" y="90" as="sourcePoint" />
            <mxPoint x="249.5" y="130" as="targetPoint" />
          </mxGeometry>
        </mxCell>
        <mxCell id="sdvS5YXuIaI8DpuQS8_O-18" value="" style="endArrow=classic;html=1;rounded=0;fillColor=#FF0808;strokeColor=#FF4545;" edge="1" parent="1">
          <mxGeometry width="50" height="50" relative="1" as="geometry">
            <mxPoint x="449.5" y="90" as="sourcePoint" />
            <mxPoint x="449.5" y="130" as="targetPoint" />
          </mxGeometry>
        </mxCell>
        <mxCell id="sdvS5YXuIaI8DpuQS8_O-19" value="" style="endArrow=classic;html=1;rounded=0;fillColor=#FF0808;strokeColor=#FF4545;" edge="1" parent="1">
          <mxGeometry width="50" height="50" relative="1" as="geometry">
            <mxPoint x="629.5" y="90" as="sourcePoint" />
            <mxPoint x="629.5" y="130" as="targetPoint" />
          </mxGeometry>
        </mxCell>
        <mxCell id="sdvS5YXuIaI8DpuQS8_O-20" value="7." style="text;html=1;align=center;verticalAlign=middle;resizable=0;points=[];autosize=1;strokeColor=none;fillColor=none;" vertex="1" parent="1">
          <mxGeometry x="16" y="218" width="30" height="30" as="geometry" />
        </mxCell>
        <mxCell id="sdvS5YXuIaI8DpuQS8_O-21" value="8" style="text;html=1;align=center;verticalAlign=middle;resizable=0;points=[];autosize=1;strokeColor=none;fillColor=none;" vertex="1" parent="1">
          <mxGeometry x="86" y="218" width="30" height="30" as="geometry" />
        </mxCell>
        <mxCell id="sdvS5YXuIaI8DpuQS8_O-22" value="9" style="text;html=1;align=center;verticalAlign=middle;resizable=0;points=[];autosize=1;strokeColor=none;fillColor=none;" vertex="1" parent="1">
          <mxGeometry x="161" y="218" width="30" height="30" as="geometry" />
        </mxCell>
        <mxCell id="sdvS5YXuIaI8DpuQS8_O-23" value="10" style="text;html=1;align=center;verticalAlign=middle;resizable=0;points=[];autosize=1;strokeColor=none;fillColor=none;" vertex="1" parent="1">
          <mxGeometry x="231" y="218" width="40" height="30" as="geometry" />
        </mxCell>
        <mxCell id="sdvS5YXuIaI8DpuQS8_O-24" value="11" style="text;html=1;align=center;verticalAlign=middle;resizable=0;points=[];autosize=1;strokeColor=none;fillColor=none;" vertex="1" parent="1">
          <mxGeometry x="291" y="218" width="40" height="30" as="geometry" />
        </mxCell>
        <mxCell id="sdvS5YXuIaI8DpuQS8_O-25" value="12" style="text;html=1;align=center;verticalAlign=middle;resizable=0;points=[];autosize=1;strokeColor=none;fillColor=none;" vertex="1" parent="1">
          <mxGeometry x="361" y="218" width="40" height="30" as="geometry" />
        </mxCell>
        <mxCell id="sdvS5YXuIaI8DpuQS8_O-26" value="1" style="text;html=1;align=center;verticalAlign=middle;resizable=0;points=[];autosize=1;strokeColor=none;fillColor=none;" vertex="1" parent="1">
          <mxGeometry x="436" y="218" width="30" height="30" as="geometry" />
        </mxCell>
        <mxCell id="sdvS5YXuIaI8DpuQS8_O-27" value="2" style="text;html=1;align=center;verticalAlign=middle;resizable=0;points=[];autosize=1;strokeColor=none;fillColor=none;" vertex="1" parent="1">
          <mxGeometry x="496" y="218" width="30" height="30" as="geometry" />
        </mxCell>
        <mxCell id="sdvS5YXuIaI8DpuQS8_O-28" value="3" style="text;html=1;align=center;verticalAlign=middle;resizable=0;points=[];autosize=1;strokeColor=none;fillColor=none;" vertex="1" parent="1">
          <mxGeometry x="556" y="218" width="30" height="30" as="geometry" />
        </mxCell>
        <mxCell id="sdvS5YXuIaI8DpuQS8_O-29" value="4" style="text;html=1;align=center;verticalAlign=middle;resizable=0;points=[];autosize=1;strokeColor=none;fillColor=none;" vertex="1" parent="1">
          <mxGeometry x="616" y="218" width="30" height="30" as="geometry" />
        </mxCell>
        <mxCell id="sdvS5YXuIaI8DpuQS8_O-30" value="5" style="text;html=1;align=center;verticalAlign=middle;resizable=0;points=[];autosize=1;strokeColor=none;fillColor=none;" vertex="1" parent="1">
          <mxGeometry x="676" y="218" width="30" height="30" as="geometry" />
        </mxCell>
        <mxCell id="sdvS5YXuIaI8DpuQS8_O-31" value="6" style="text;html=1;align=center;verticalAlign=middle;resizable=0;points=[];autosize=1;strokeColor=none;fillColor=none;" vertex="1" parent="1">
          <mxGeometry x="736" y="218" width="30" height="30" as="geometry" />
        </mxCell>
        <mxCell id="sdvS5YXuIaI8DpuQS8_O-32" value="7" style="text;html=1;align=center;verticalAlign=middle;resizable=0;points=[];autosize=1;strokeColor=none;fillColor=none;" vertex="1" parent="1">
          <mxGeometry x="806" y="218" width="30" height="30" as="geometry" />
        </mxCell>
        <mxCell id="sdvS5YXuIaI8DpuQS8_O-33" value="" style="endArrow=classic;html=1;rounded=0;fillColor=#FF0808;strokeColor=#0024FF;" edge="1" parent="1">
          <mxGeometry width="50" height="50" relative="1" as="geometry">
            <mxPoint x="30.5" y="174" as="sourcePoint" />
            <mxPoint x="30.5" y="214" as="targetPoint" />
          </mxGeometry>
        </mxCell>
        <mxCell id="sdvS5YXuIaI8DpuQS8_O-34" value="" style="endArrow=classic;html=1;rounded=0;fillColor=#FF0808;strokeColor=#0024FF;" edge="1" parent="1">
          <mxGeometry width="50" height="50" relative="1" as="geometry">
            <mxPoint x="250.5" y="178" as="sourcePoint" />
            <mxPoint x="250.5" y="218" as="targetPoint" />
          </mxGeometry>
        </mxCell>
        <mxCell id="sdvS5YXuIaI8DpuQS8_O-35" value="" style="endArrow=classic;html=1;rounded=0;fillColor=#FF0808;strokeColor=#0024FF;" edge="1" parent="1">
          <mxGeometry width="50" height="50" relative="1" as="geometry">
            <mxPoint x="450.5" y="178" as="sourcePoint" />
            <mxPoint x="450.5" y="218" as="targetPoint" />
          </mxGeometry>
        </mxCell>
        <mxCell id="sdvS5YXuIaI8DpuQS8_O-36" value="" style="endArrow=classic;html=1;rounded=0;fillColor=#FF0808;strokeColor=#0024FF;" edge="1" parent="1">
          <mxGeometry width="50" height="50" relative="1" as="geometry">
            <mxPoint x="570.5" y="178" as="sourcePoint" />
            <mxPoint x="570.5" y="218" as="targetPoint" />
          </mxGeometry>
        </mxCell>
        <mxCell id="sdvS5YXuIaI8DpuQS8_O-37" value="" style="endArrow=classic;html=1;rounded=0;fillColor=#FF0808;strokeColor=#0024FF;" edge="1" parent="1">
          <mxGeometry width="50" height="50" relative="1" as="geometry">
            <mxPoint x="749.5" y="178" as="sourcePoint" />
            <mxPoint x="749.5" y="218" as="targetPoint" />
          </mxGeometry>
        </mxCell>
      </root>
    </mxGraphModel>
  </diagram>
</mxfile>
